HIERARCHY
ROOT root
{
	OFFSET 0.000000 0.000000 0.000000
	CHANNELS 6 Xposition Yposition Zposition Zrotation Yrotation Xrotation
	JOINT lhip
	{
		OFFSET 0.058581 -0.082280 -0.017664
		CHANNELS 3 Zrotation Yrotation Xrotation
		JOINT lknee
		{
			OFFSET 0.043451 -0.386469 0.008037
			CHANNELS 3 Zrotation Yrotation Xrotation
			JOINT lankle
			{
				OFFSET -0.014790 -0.426874 -0.037428
				CHANNELS 3 Zrotation Yrotation Xrotation
				JOINT ltoe
				{
					OFFSET 0.041054 -0.060286 0.122042
					CHANNELS 3 Zrotation Yrotation Xrotation
					End Site
					{
						OFFSET 0.000000 0.000000 0.000000
					}
				}
			}
		}
	}
	JOINT rhip
	{
		OFFSET -0.060310 -0.090513 -0.013543
		CHANNELS 3 Zrotation Yrotation Xrotation
		JOINT rknee
		{
			OFFSET -0.043257 -0.383688 -0.004843
			CHANNELS 3 Zrotation Yrotation Xrotation
			JOINT rankle
			{
				OFFSET 0.019056 -0.420046 -0.034562
				CHANNELS 3 Zrotation Yrotation Xrotation
				JOINT rtoe
				{
					OFFSET -0.034840 -0.062106 0.130323
					CHANNELS 3 Zrotation Yrotation Xrotation
					End Site
					{
						OFFSET 0.000000 0.000000 0.000000
					}
				}
			}
		}
	}
	JOINT lowerback
	{
		OFFSET 0.004439 0.124404 -0.038385
		CHANNELS 3 Zrotation Yrotation Xrotation
		JOINT upperback
		{
			OFFSET 0.004488 0.137956 0.026820
			CHANNELS 3 Zrotation Yrotation Xrotation
			JOINT chest
			{
				OFFSET -0.002265 0.056032 0.002855
				CHANNELS 3 Zrotation Yrotation Xrotation
				JOINT lowerneck
				{
					OFFSET -0.013390 0.211636 -0.033468
					CHANNELS 3 Zrotation Yrotation Xrotation
					JOINT upperneck
					{
						OFFSET 0.010113 0.088937 0.050410
						CHANNELS 3 Zrotation Yrotation Xrotation
						End Site
						{
							OFFSET 0.000000 0.000000 0.000000
						}
					}
				}
				JOINT lclavicle
				{
					OFFSET 0.071702 0.114000 -0.018898
					CHANNELS 3 Zrotation Yrotation Xrotation
					JOINT lshoulder
					{
						OFFSET 0.122921 0.045205 -0.019046
						CHANNELS 3 Zrotation Yrotation Xrotation
						JOINT lelbow
						{
							OFFSET 0.255332 -0.015649 -0.022946
							CHANNELS 3 Zrotation Yrotation Xrotation
							JOINT lwrist
							{
								OFFSET 0.265709 0.012698 -0.007375
								CHANNELS 3 Zrotation Yrotation Xrotation
								End Site
								{
									OFFSET 0.000000 0.000000 0.000000
								}
							}
						}
					}
				}
				JOINT rclavicle
				{
					OFFSET -0.082954 0.112472 -0.023707
					CHANNELS 3 Zrotation Yrotation Xrotation
					JOINT rshoulder
					{
						OFFSET -0.113228 0.046853 -0.008472
						CHANNELS 3 Zrotation Yrotation Xrotation
						JOINT relbow
						{
							OFFSET -0.260127 -0.014369 -0.031269
							CHANNELS 3 Zrotation Yrotation Xrotation
							JOINT rwrist
							{
								OFFSET -0.269108 0.006794 -0.006027
								CHANNELS 3 Zrotation Yrotation Xrotation
								End Site
								{
									OFFSET 0.000000 0.000000 0.000000
								}
							}
						}
					}
				}
			}
		}
	}
}
MOTION
Frames: 5
Frame Time: 0.033333
-0.416071 -0.217290 0.962521 91.811951 -1.920272 84.965481 -0.617149 -5.917600 -12.820992 -5.524630 -0.745394 14.142468 6.742680 8.327056 -7.626500 0.000000 -0.000000 0.000000 -0.345966 -1.301125 3.139939 3.220792 4.928825 46.126878 7.176598 0.385207 9.082968 0.000000 -0.000000 0.000000 0.743111 6.320168 6.695325 -1.966149 0.880868 7.663450 -2.067232 2.582191 0.915158 -5.216265 32.754815 -1.422829 -5.175446 33.992595 -4.895233 -33.809325 -4.079431 0.994000 -52.178512 -2.633146 10.387279 20.285368 -42.102404 -5.839973 9.991676 -10.828159 -14.832813 27.886444 -1.689441 8.016571 46.113646 4.117514 9.524137 -41.746191 49.415929 -28.742688 -5.186371 11.642563 -9.676894 
-0.383072 -0.210704 0.965675 92.425426 -1.738366 84.496507 -1.543675 -5.507206 -10.383597 -5.376623 -1.969398 14.815567 8.027000 9.072034 -9.900862 0.000000 -0.000000 0.000000 -0.628674 -1.648441 -1.337179 2.534468 2.393191 53.608351 6.497505 -3.970676 13.568027 0.000000 -0.000000 0.000000 0.604678 5.230300 6.636265 -1.699227 1.217315 7.430980 -2.172333 2.312508 1.337729 -4.623665 31.646083 -0.925647 -5.630558 34.126926 -4.248134 -33.446133 -3.656457 1.496189 -51.775536 -2.766635 9.631660 20.009401 -40.542111 -5.893059 11.609713 -11.129535 -14.582897 28.387933 -1.307006 7.209285 46.967382 4.798318 11.219467 -41.029778 50.963626 -26.869930 -4.247411 13.198067 -8.741373 
-0.350295 -0.205744 0.970011 93.777583 -1.320965 83.833182 -2.124138 -4.945420 -7.256045 -5.101366 -3.947983 14.531460 8.280551 9.094907 -11.435867 0.000000 -0.000000 0.000000 -0.864356 -2.106741 -5.252135 0.112784 -1.773322 58.926643 3.961735 -8.305976 9.940120 0.000000 -0.000000 0.000000 0.302722 4.190395 6.756892 -1.189837 1.248633 7.483588 -1.857890 1.892173 1.425275 -4.180592 31.817184 -0.666198 -6.175101 33.724187 -3.530067 -33.266757 -3.670224 2.235582 -51.347515 -2.679393 9.131002 19.986758 -39.385496 -5.501876 11.389109 -11.033839 -14.791314 29.824671 -1.064214 6.978016 46.734213 5.102211 12.040978 -40.306584 52.519433 -24.200082 -2.059179 14.652700 -6.065380 
-0.311567 -0.200305 0.975575 95.305643 -0.593280 83.431021 -1.967380 -3.845131 -3.376500 -5.046995 -5.629378 12.985995 7.721417 8.554874 -12.951340 0.000000 -0.000000 0.000000 -1.138031 -2.523254 -10.205625 -2.907951 -5.769113 62.116381 2.241934 -11.657250 2.494608 0.000000 -0.000000 0.000000 0.284210 2.856715 7.194728 -0.621391 1.513561 6.781310 -1.424806 1.196019 1.757178 -3.632347 32.123062 -1.021996 -6.064218 32.337117 -1.552799 -32.791438 -2.690288 2.262201 -51.263905 -3.057886 8.479330 19.261176 -38.610465 -4.192208 10.533176 -11.251255 -14.432653 31.324793 -1.180163 6.393546 46.865975 5.566072 12.892835 -37.682672 53.200661 -18.701029 1.133421 15.723302 -2.250930 
-0.288660 -0.197638 0.977928 96.496800 -0.146642 83.388924 -1.507288 -3.335099 -1.054111 -5.266858 -7.032592 11.575771 7.417054 8.168486 -13.511192 0.000000 -0.000000 0.000000 -1.552072 -2.553946 -12.803715 -3.522236 -8.000474 61.930073 2.013886 -12.121217 -1.077053 0.000000 -0.000000 0.000000 0.189369 2.041363 7.042041 -0.268221 1.385181 6.694795 -1.160683 1.073768 1.794339 -2.816508 32.421664 -0.559369 -6.061414 31.216763 -0.812741 -32.388648 -2.450606 2.755989 -51.467968 -3.313197 8.343543 19.460864 -38.356603 -4.188906 10.107001 -11.508188 -13.907794 32.003392 -1.165147 6.431644 47.578476 5.714644 13.132370 -36.398855 52.570346 -16.545353 1.588559 16.136124 -0.749082 
